# xmcd
#
# Track frame offsets: 
#        150
#        15076
#        27045
#        43605
#        57027
#        67932
#        79164
#        90064
#        103817
#        115258
#        128209
#        143620
#        159602
#        173554
#        186318
#        198500
#        211709
#        225034
#        236822
#        249638
#
# Disc length: 3501 seconds
#
# Revision: 2
# Processed by: cddbd v1.5.2PL0 Copyright (c) Steve Scherf et al.
# Submitted via: ExactAudioCopyFreeDBPlugin 1.0
#
DISCID=f00dab14
DTITLE=Various Artist - Goin' Mad Blues
DYEAR=2006
DGENRE=Blues
TTITLE0=T-Bone Walker - I Got A Break Baby
TTITLE1=Jimmy Yanseey - Rolling The Stone
TTITLE2=John Lee Hooker - Helpless Blues
TTITLE3=Big Joe Williams - Meet Me Around The Corner
TTITLE4=Blind Boy Fuller and Sonny Terry - Mistreater, You`re Going To B
TTITLE4=e Sorry
TTITLE5=Robert Johnson - Love In Vain
TTITLE6=Blind John Davis - My Own Boogie
TTITLE7=Blind Willie McTell - It`s Your Time To Worry
TTITLE8=Ligthnin`Hopkins - Let Me Play With Your Poddle
TTITLE9=Memphis Slim - Diggin`My Potatoes No. 2
TTITLE10=Big Bill Broonzy - Friendless Blues
TTITLE11=Bessie Smith - Nobody In Town Can Bake A Sweet Jelly Roll Lik
TTITLE11=e Mine
TTITLE12=Big Joe Turner - Doggin`The Blues
TTITLE13=Sleepy Jon Estes - Everybody Oughta Make A Change
TTITLE14=Ma Rainey - Shave Èm Dry Blues
TTITLE15=Bukka White - Spesial Streamline
TTITLE16=Arthur "Big Boy"Crudup - Rock Me Mamma
TTITLE17=Brownie McGhee - Not Guilty Blues
TTITLE18=Hot Lips Page - Rockin`At Ryans
TTITLE19=Leadbelly - My Baby Quit Me
EXTD=YEAR: 2006
EXTT0=
EXTT1=
EXTT2=
EXTT3=
EXTT4=
EXTT5=
EXTT6=
EXTT7=
EXTT8=
EXTT9=
EXTT10=
EXTT11=
EXTT12=
EXTT13=
EXTT14=
EXTT15=
EXTT16=
EXTT17=
EXTT18=
EXTT19=
PLAYORDER=
